<svg xmlns="http://www.w3.org/2000/svg" width="0.97em" height="1em" viewBox="0 0 496 512"><path fill="currentColor" d="M248 8C111.033 8 0 119.033 0 256s111.033 248 248 248s248-111.033 248-248S384.967 8 248 8m114.952 168.66c-3.732 39.215-19.881 134.378-28.1 178.3c-3.476 18.584-10.322 24.816-16.948 25.425c-14.4 1.326-25.338-9.517-39.287-18.661c-21.827-14.308-34.158-23.215-55.346-37.177c-24.485-16.135-8.612-25 5.342-39.5c3.652-3.793 67.107-61.51 68.335-66.746c.153-.655.3-3.1-1.154-4.384s-3.59-.849-5.135-.5q-3.283.746-104.608 69.142q-14.845 10.194-26.894 9.934c-8.855-.191-25.888-5.006-38.551-9.123c-15.531-5.048-27.875-7.717-26.8-16.291q.84-6.7 18.45-13.7q108.446-47.248 144.628-62.3c68.872-28.647 83.183-33.623 92.511-33.789c2.052-.034 6.639.474 9.61 2.885a10.452 10.452 0 0 1 3.53 6.716a43.765 43.765 0 0 1 .417 9.769"/></svg>