<svg width="32" height="32" fill="none" xmlns="http://www.w3.org/2000/svg"><rect width="32" height="32" rx="8" transform="matrix(-1 0 0 1 32 0)" fill="#fff"/><path d="M11.076 25.337H6.47a.64.64 0 0 1-.633-.74L8.944 4.901C9.026 4.382 9.474 4 9.998 4h7.46c2.57 0 4.578.543 5.69 1.81 1.01 1.15 1.304 2.42 1.012 4.287-.023.143-.047.288-.077.437-.983 5.05-4.349 6.797-8.647 6.797h-2.19c-.524 0-.968.382-1.05.9l-1.12 7.106Zm14.146-14.42a3.35 3.35 0 0 0-.607-.541c-.013.076-.026.175-.041.254-.93 4.778-4.005 7.201-9.138 7.201h-2.19a.563.563 0 0 0-.556.479l-1.187 7.527h-.506l-.24 1.516a.56.56 0 0 0 .554.647h3.882c.46 0 .85-.334.922-.788.06-.26.76-4.852.816-5.09a.932.932 0 0 1 .923-.788h.58c3.76 0 6.705-1.528 7.565-5.946.36-1.847.174-3.388-.777-4.471Z" fill="#000"/></svg>