<svg width="32" height="32" viewBox="0 0 32 32" fill="none" xmlns="http://www.w3.org/2000/svg">
<path d="M13.815 29.9028C14.3925 29.9934 14.9808 29.8268 15.425 29.4469C15.6861 29.2235 15.8821 28.9396 15.9993 28.6248C16.1165 28.9401 16.3127 29.2244 16.5741 29.4479C17.0184 29.8279 17.6067 29.9945 18.1842 29.9038C24.8798 28.8524 30 23.0622 30 16.073C30 8.34143 23.7316 2.073 16 2.073C8.26843 2.073 2 8.34143 2 16.073C2 23.0632 7.12022 28.8526 13.815 29.9028ZM16.8784 17.808C16.4772 18.0387 16.1635 18.4047 15.9997 18.8436C15.8359 18.4042 15.5221 18.0379 15.1206 17.807C15.5218 17.5763 15.8355 17.2103 15.9993 16.7714C16.1631 17.2108 16.4769 17.5771 16.8784 17.808Z" fill="black" stroke="white" stroke-width="4" stroke-linejoin="round"/>
</svg>
