<svg width="32" height="32" viewBox="0 0 32 32" fill="none" xmlns="http://www.w3.org/2000/svg">
<path d="M10.9592 2.0742L10.964 2.07397C12.2875 2.01504 12.7285 2 16 2C19.2672 2 19.7123 2.01193 21.0406 2.07419C22.5042 2.14193 23.5909 2.3804 24.5814 2.76462C25.6182 3.16467 26.526 3.72554 27.4002 4.59979L27.4013 4.60085C28.2753 5.47621 28.8347 6.38548 29.2347 7.41682L29.2349 7.41746C29.6184 8.40722 29.857 9.49498 29.9258 10.9591L29.926 10.964C29.985 12.2875 30 12.7285 30 16C30 19.2661 29.9881 19.712 29.9259 21.0393L10.9592 2.0742ZM10.9592 2.0742C9.49526 2.14293 8.40893 2.38023 7.41682 2.76533L10.9592 2.0742ZM7.41617 2.76558C6.38628 3.16509 5.47634 3.72323 4.59979 4.59979C3.72501 5.47456 3.16457 6.3833 2.76489 7.41794C2.38058 8.4084 2.14195 9.4943 2.07419 10.9594C2.01193 12.2877 2 12.7328 2 16C2 19.2715 2.01504 19.7125 2.07397 21.036L2.0742 21.0409C2.14295 22.5039 2.38028 23.5914 2.76558 24.5838L2.76564 24.584C3.16478 25.6118 3.72255 26.523 4.59979 27.4002L4.60085 27.4013C5.47457 28.2737 6.38282 28.8354 7.41911 29.2356L7.41617 2.76558ZM7.41967 29.2358C8.40817 29.6177 9.49283 29.8579 10.9594 29.9258L7.41967 29.2358ZM10.9607 29.9259C12.288 29.9881 12.7339 30 16 30C19.2715 30 19.7125 29.985 21.036 29.926L21.0409 29.9258C22.5055 29.857 23.5918 29.6183 24.5817 29.2352L24.584 29.2344C25.613 28.8348 26.5233 28.2758 27.3992 27.4013L27.4013 27.3992C28.2733 26.5258 28.8355 25.6183 29.2361 24.5795C29.6181 23.5916 29.858 22.5059 29.9258 21.0406L10.9607 29.9259ZM13.8136 8.13404C11.0442 8.90193 8.86801 11.0928 8.11913 13.8685C8.12603 12.5727 8.14214 12.1172 8.17146 11.2878C8.17234 11.2629 8.17323 11.2377 8.17414 11.2121C8.22519 10.2601 8.37465 9.83221 8.4575 9.6213C8.46271 9.60806 8.46777 9.59476 8.47269 9.58141C8.56964 9.31825 8.66548 9.16795 8.91021 8.92321C9.15321 8.68022 9.304 8.58407 9.56458 8.48836C9.57983 8.48276 9.59502 8.47697 9.61014 8.47099C9.82421 8.38638 10.238 8.23799 11.1832 8.18817L11.2463 8.18594C12.0792 8.1565 12.5249 8.14076 13.8136 8.13404ZM19.1545 8.4699C18.8759 8.35309 18.5896 8.25128 18.2964 8.16548C18.6907 8.16822 19.0018 8.1721 19.2712 8.17735C19.228 8.27263 19.189 8.37022 19.1545 8.4699ZM23.5308 12.8467C23.63 12.8123 23.7272 12.7736 23.8221 12.7306C23.8271 12.9982 23.8306 13.3071 23.8331 13.6985C23.7478 13.4075 23.6467 13.1232 23.5308 12.8467ZM18.3021 23.833C20.9593 23.0534 23.053 20.9588 23.8326 18.303C23.8243 19.4976 23.805 19.9235 23.7664 20.7509C23.7167 21.6956 23.5696 22.1196 23.4828 22.3424C23.354 22.6641 23.2439 22.8294 23.0281 23.0465C22.8131 23.2611 22.6448 23.3717 22.3368 23.4919L22.3365 23.492C22.121 23.5761 21.6913 23.7269 20.7385 23.77C19.9069 23.8073 19.482 23.8252 18.3021 23.833ZM9.6063 23.4815C9.2866 23.3555 9.13031 23.2504 8.91191 23.0315L8.90684 23.0264C8.67772 22.7984 8.57101 22.6327 8.46699 22.3573L8.4575 22.3327C8.37477 22.1221 8.22516 21.6932 8.17411 20.7405L8.17157 20.6694C8.14243 19.8547 8.12631 19.4042 8.1193 18.1326C8.85817 20.8704 10.9854 23.0369 13.6978 23.8328C12.4758 23.8246 12.0505 23.8054 11.2094 23.7664C10.2505 23.716 9.81912 23.5651 9.6063 23.4815ZM21.4905 6.27935C21.8562 6.31859 22.1549 6.37287 22.4038 6.43321L22.406 8.156L21.4905 6.27935ZM22.406 6.43374C22.6835 6.50113 22.8992 6.57605 23.077 6.646L22.406 6.43374ZM16 18C14.8946 18 14 17.1054 14 16C14 14.8946 14.8946 14 16 14C17.1054 14 18 14.8946 18 16C18 17.1054 17.1054 18 16 18Z" fill="black" stroke="white" stroke-width="4" stroke-linejoin="round"/>
</svg>
