<svg width="32" height="32" viewBox="0 0 32 32" fill="none" xmlns="http://www.w3.org/2000/svg">
<path d="M30 15.9979C29.9996 13.0373 29.0771 10.2888 27.5086 8.02648C27.1709 7.53939 26.6346 7.22717 26.0443 7.17405C25.4539 7.12092 24.8705 7.33236 24.4512 7.75133L21.3422 10.8583C20.7113 11.4888 20.5742 12.4609 21.0061 13.2414C21.4727 14.0846 21.7167 15.0328 21.715 15.9965L21.715 16.0027C21.7163 16.9669 21.4722 17.9155 21.0057 18.7593C20.5743 19.5397 20.7115 20.5114 21.3422 21.1417L24.4512 24.2487C24.8702 24.6674 25.4533 24.8788 26.0433 24.826C26.6332 24.7732 27.1695 24.4616 27.5075 23.9752C29.1345 21.6335 30.0044 18.8493 30 15.9979ZM30 15.9979C30 15.9986 30 15.9993 30 16H28L30 15.9967C30 15.9971 30 15.9975 30 15.9979ZM25.865 9.166L27.2788 10.5807L26.8948 10.9644C26.6027 10.3334 26.2575 9.73209 25.865 9.166ZM25.865 9.166L24.2214 10.3055C24.2903 10.4049 24.3574 10.5055 24.4227 10.6074L25.865 9.166ZM25.865 22.834L24.2225 21.6928C24.2912 21.5939 24.3581 21.4939 24.423 21.3929L25.865 22.834ZM25.865 22.834L27.2788 21.4193L26.8953 21.0361C26.606 21.6612 26.2618 22.263 25.865 22.834ZM23.9735 27.5086C24.4606 27.1709 24.7728 26.6346 24.8259 26.0443L16 4V2C15.9995 2 15.9989 2 15.9984 2C8.26755 2.00088 2 8.26897 2 16C2 23.7316 8.26843 30 16 30C18.9614 30 21.7106 29.0775 23.9735 27.5086Z" fill="black" stroke="white" stroke-width="4" stroke-linejoin="round"/>
</svg>
