<svg width="32" height="32" viewBox="0 0 32 32" fill="none" xmlns="http://www.w3.org/2000/svg">
<path d="M6.47 27.337H6.46904C6.08783 27.3368 5.71119 27.2541 5.36497 27.0946C5.01875 26.935 4.71118 26.7024 4.46339 26.4127C4.21559 26.123 4.03345 25.7832 3.92946 25.4164C3.82548 25.0497 3.80212 24.6647 3.861 24.2881L3.86143 24.2854L6.96843 4.58936L6.9685 4.58888C7.20415 3.09743 8.49036 2 9.998 2H17.458C20.1749 2 22.947 2.54904 24.6512 4.49072C25.3473 5.28355 25.8427 6.17798 26.0892 7.22705C26.2353 7.84872 26.2844 8.48367 26.2621 9.13173C26.4253 9.27693 26.5796 9.43211 26.7241 9.59647L26.7248 9.59734C28.2683 11.355 28.3745 13.6543 27.9622 15.7701C27.4541 18.3803 26.273 20.3606 24.4631 21.6476C22.7854 22.8407 20.7771 23.2883 18.7579 23.3306C18.6858 23.7841 18.5956 24.3605 18.5044 24.9427L18.5004 24.9681C18.4859 25.0608 18.4712 25.155 18.4563 25.2498C18.3117 26.1743 18.1567 27.1649 18.0881 27.5389C17.8568 28.9549 16.6346 30 15.193 30L11.3139 30C11.3133 30 11.3127 30 11.3121 30H11.311V28C11.23 28.0001 11.15 27.9827 11.0764 27.9489C11.0029 27.9151 10.9375 27.8657 10.8848 27.8042C10.8322 27.7427 10.7935 27.6705 10.7714 27.5926C10.7493 27.5147 10.7444 27.433 10.757 27.353L6.47 27.337ZM6.47 27.337H8.75227H6.47Z" fill="black" stroke="white" stroke-width="4" stroke-linejoin="round"/>
</svg>
