<svg width="32" height="32" viewBox="0 0 32 32" fill="none" xmlns="http://www.w3.org/2000/svg">
<path d="M29.6044 27.9195C29.6453 27.2942 29.4211 26.748 29.1021 26.3496C27.743 24.6249 26.3689 23.5257 24.9542 22.7957C24.7434 22.6869 24.5338 22.5875 24.3258 22.4962C24.5234 22.3773 24.695 22.2308 24.8395 22.0695C25.2394 21.9378 25.6217 21.677 25.9026 21.2512C25.9199 21.2249 25.9366 21.1982 25.9527 21.1711C27.1199 19.2052 27.7366 16.9615 27.738 14.6752V14.674C27.738 7.67343 22.0646 2 15.064 2C8.06556 2 2.39101 7.67331 2.39101 14.673C2.39101 21.6728 8.06568 27.346 15.065 27.346C15.8841 27.346 16.693 27.2752 17.4699 27.2073C17.5367 27.2015 17.6032 27.1956 17.6695 27.1899C18.5266 27.1155 19.4167 27.0442 20.4701 27.036C21.9579 27.0376 23.7294 27.5356 25.8546 29.4188L25.8545 29.4189L25.864 29.4272C26.7272 30.1825 28.0031 30.1956 28.86 29.4365C29.2691 29.0741 29.5636 28.5416 29.6044 27.9195ZM19.9849 13.419C19.8751 13.4253 19.7695 13.4328 19.6697 13.4415C19.6497 13.4433 19.6297 13.4453 19.6098 13.4476C19.4208 13.4698 19.099 13.5257 18.7609 13.7052C18.4927 13.8474 17.6528 14.3922 17.6528 15.5271C17.6528 16.6006 18.4169 17.1458 18.6518 17.2893C18.9535 17.4736 19.2489 17.5531 19.4605 17.5899C20.0002 17.6922 20.4319 17.8578 20.7754 18.0676C20.7348 18.126 20.6967 18.1865 20.6615 18.2488C20.544 18.4562 20.4669 18.6646 20.4184 18.865C19.7406 18.8834 18.9752 19.1501 18.434 19.8321C18.3834 19.8951 18.3367 19.959 18.2936 20.0237C17.9074 19.6226 17.5911 19.1661 17.3028 18.6698C17.2284 18.5353 17.0823 18.2886 16.8556 18.061C16.7366 17.9415 16.4758 17.7037 16.07 17.557C15.587 17.3824 14.9586 17.3663 14.3716 17.6953C13.8734 17.9745 13.6315 18.3787 13.5307 18.5788C13.4203 18.7981 13.3675 18.9963 13.3408 19.1155C13.3196 19.2098 13.3045 19.3023 13.2937 19.3894C12.6282 19.1376 12.0167 18.7461 11.5038 18.2332C10.5553 17.2847 10.0217 15.9987 10.02 14.6573C10.022 13.3163 10.5558 12.0308 11.5043 11.0827C12.4529 10.1345 13.739 9.60124 15.0803 9.6C15.794 9.60057 16.4995 9.75199 17.1506 10.0443C17.8021 10.3369 18.3844 10.7639 18.8591 11.2974C19.3339 11.8308 19.6905 12.4587 19.9055 13.1398C19.9346 13.2322 19.9611 13.3253 19.9849 13.419ZM17.2662 19.8526C17.2662 19.8527 17.2661 19.8557 17.2655 19.8612C17.2659 19.8553 17.2661 19.8526 17.2662 19.8526ZM22.708 19.077L22.7313 18.8654C22.7405 18.8628 22.7497 18.8604 22.7589 18.858L22.708 19.077ZM20.494 20.864V20.8057C20.5135 20.7958 20.5333 20.7865 20.5534 20.7777C20.5755 20.768 20.5979 20.759 20.6206 20.7507C20.6395 20.7954 20.6592 20.8395 20.6796 20.8831C20.6507 20.8773 20.6221 20.8728 20.5937 20.8696C20.56 20.8659 20.5267 20.864 20.494 20.864Z" fill="black" stroke="white" stroke-width="4" stroke-linejoin="round"/>
</svg>
