<svg width="32" height="32" viewBox="0 0 32 32" fill="none" xmlns="http://www.w3.org/2000/svg">
<path d="M15.944 4L15.9347 2.00002C12.233 2.0173 8.68878 3.49992 6.07738 6.12355C3.46599 8.74719 1.99997 12.2983 2 16L15.944 4ZM15.944 4L15.9393 2.00001L16 2L16.0047 2.00001L16 4C19.1826 4 22.2348 5.26428 24.4853 7.51472C26.7357 9.76516 28 12.8174 28 16C28 19.1826 26.7357 22.2348 24.4853 24.4853C22.2348 26.7357 19.1826 28 16 28C12.8174 28 9.76515 26.7357 7.51472 24.4853L15.944 4ZM14.2784 18.8371C14.0159 18.4204 14.3597 18.0893 14.781 17.6835C14.8728 17.5951 14.9683 17.5032 15.062 17.406C15.1043 17.3621 15.3115 17.1694 15.6033 16.898C16.0012 16.528 16.5565 16.0116 17.0652 15.5268C17.4941 15.8674 17.9463 15.9204 18.1734 15.9223C18.389 15.9241 18.552 15.8801 18.5061 15.8905L18.5057 15.8906L14.2784 18.8371ZM14.2784 18.8371C14.7593 18.5128 15.2044 18.2131 15.6137 17.938C15.614 17.9378 15.6142 17.9377 15.6145 17.9375C15.6731 17.8981 15.731 17.8592 15.7882 17.8208C15.7893 17.82 15.7905 17.8193 15.7916 17.8185C15.8407 17.7856 15.8892 17.753 15.9371 17.7208M14.2784 18.8371L15.9371 17.7208M12.3589 17.6369C12.5635 17.5569 12.7781 17.4396 13.003 17.285C13.406 17.0131 13.785 16.7577 14.1399 16.5189L13.7747 16.1677C13.5978 16.2441 13.4154 16.323 13.2275 16.4044M12.3589 17.6369L18.3367 14.2345C18.3549 14.2087 18.3659 14.189 18.369 14.176C18.376 14.144 18.383 14.026 18.313 13.964C18.243 13.902 18.139 13.923 18.064 13.94C18.0453 13.9442 17.9771 13.9826 17.8595 14.0552L16.8256 13.81L16.8248 13.8098L16.423 13.7145C16.4722 13.507 16.5473 13.3462 16.5951 13.2566C16.5951 13.2565 16.5952 13.2564 16.5952 13.2563C16.6136 13.2217 16.6279 13.1978 16.6351 13.1858L16.6366 13.1832C16.6786 13.1128 16.7136 13.0657 16.7245 13.0512C16.7365 13.0352 16.7439 13.0263 16.744 13.0261C16.7441 13.026 16.7382 13.0331 16.7244 13.0486C16.6911 13.0859 16.6416 13.1388 16.575 13.2076C16.5749 13.2077 16.5749 13.2077 16.5748 13.2078C16.5345 13.2495 16.4878 13.297 16.4346 13.3504C16.158 13.6281 15.7813 13.9896 15.3861 14.3629C14.9938 14.7334 14.5968 15.1029 14.283 15.3947C14.2511 15.4243 14.2188 15.4543 14.1866 15.4843C13.9471 15.7069 13.708 15.929 13.6223 16.0177C13.5657 16.0765 13.503 16.1376 13.4206 16.217C13.4122 16.2251 13.4034 16.2336 13.3942 16.2425C13.3457 16.2892 13.2873 16.3454 13.2275 16.4044M12.3589 17.6369C12.3731 17.6001 12.3881 17.5638 12.4038 17.5279C12.505 17.2972 12.6332 17.0959 12.7584 16.9292C12.7592 16.9281 12.76 16.9271 12.7608 16.926C12.91 16.7278 13.0548 16.5788 13.1442 16.4879C13.1717 16.4599 13.1997 16.4318 13.2275 16.4044M12.3589 17.6369L10.5879 17.551M13.2275 16.4044C13.0229 16.493 12.8118 16.5845 12.5941 16.6789C12.5921 16.6798 12.5901 16.6807 12.5881 16.6815C12.3092 16.8025 12.0196 16.9283 11.7192 17.0589C11.7175 17.0596 11.7158 17.0603 11.7142 17.061C11.3542 17.2175 10.9788 17.3808 10.5879 17.551M10.5879 17.551C10.4865 17.5232 10.3847 17.4941 10.2845 17.4644C10.3831 17.3064 10.4867 17.0781 10.5235 16.7847C10.5235 16.7845 10.5235 16.7843 10.5236 16.7841C10.548 16.5888 10.5391 16.3584 10.4682 16.1164C10.4331 15.9966 10.3871 15.8886 10.3353 15.7926M10.5879 17.551L16.43 12.859C16.1304 12.9834 15.7543 13.142 15.3016 13.3348C14.4683 13.888 13.3284 14.6528 11.8844 15.6271L11.8699 15.6369C11.7828 15.6968 11.7185 15.7329 11.6764 15.7537M10.3353 15.7926L10.454 15.4281C10.4563 15.4271 10.4586 15.4261 10.4608 15.4251C10.7385 15.5151 11.0483 15.6076 11.3235 15.6765C11.462 15.7111 11.5767 15.736 11.6645 15.7516C11.6686 15.7523 11.6726 15.753 11.6764 15.7537M10.3353 15.7926C10.3349 15.7919 10.3345 15.7912 10.3341 15.7905L10.4514 15.4292L10.0316 16.7226L10.0314 16.723L9.93361 17.0243L9.91406 17.0845L9.836 17.325L9.91421 17.0849L9.93381 17.0248L10.0321 16.7231L10.0322 16.7227L10.3353 15.7926ZM11.6764 15.7537C11.6522 15.7656 11.6353 15.7725 11.6257 15.7761C11.6219 15.7775 11.62 15.7781 11.62 15.7781C11.62 15.7781 11.6622 15.7651 11.7384 15.7654C11.7408 15.7655 11.7432 15.7655 11.7457 15.7655C11.7483 15.7656 11.7505 15.7657 11.7524 15.7657C11.7572 15.7659 11.7598 15.7661 11.7598 15.766C11.7598 15.7659 11.734 15.7636 11.6764 15.7537ZM15.9371 17.7208C15.9505 17.7118 15.9638 17.7029 15.9771 17.694C15.9534 17.6782 15.9293 17.6624 15.9051 17.6464L15.9036 17.6454C15.8483 17.609 15.826 17.5901 15.826 17.5902C15.826 17.5902 15.8292 17.5929 15.8349 17.5985C15.8438 17.607 15.8649 17.628 15.8927 17.6621C15.893 17.6626 15.8934 17.663 15.8938 17.6635C15.907 17.6797 15.9216 17.6988 15.9371 17.7208ZM20.9235 12.1004L20.946 13.2236L20.9415 13.2237L20.9215 12.1003L20.9215 12.0993L20.9184 11.9211L20.9199 11.9192L20.9235 12.0995L20.9235 12.1004ZM20.9192 11.8843L20.9177 11.8859L20.9162 11.7967L20.9155 11.7601L20.906 11.224L20.9167 11.76L20.9174 11.7965L20.9192 11.8843ZM16.8386 13.8412L17.8482 14.0621C17.6909 14.1594 17.4495 14.3147 17.1242 14.5279C17.1239 14.5281 17.1236 14.5284 17.1233 14.5286C16.9567 14.6377 16.7682 14.7621 16.5576 14.9016C16.4467 14.6772 16.4072 14.4801 16.3916 14.375C16.3624 14.1788 16.3664 13.9719 16.4152 13.7486L16.8378 13.841L16.8386 13.8412ZM13.7768 16.1667C14.7802 15.733 15.6057 15.3785 16.2545 15.1028C15.6844 15.482 14.98 15.9537 14.1412 16.5181L13.7768 16.1667ZM18.1327 17.2709C18.3987 17.0196 18.6697 16.7612 18.9157 16.5216C18.7518 17.5193 18.5812 18.5106 18.4319 19.3469C17.988 19.054 17.6254 18.8074 17.2574 18.5567L17.2033 18.5199C17.1257 18.467 17.0476 18.4138 16.9683 18.3598C16.9809 18.3481 16.9938 18.3361 17.0069 18.3238C17.3204 18.0323 17.7278 17.6532 18.1327 17.2709Z" fill="black" stroke="white" stroke-width="4" stroke-linejoin="round"/>
</svg>
