<svg width="32" height="32" viewBox="0 0 32 32" fill="none" xmlns="http://www.w3.org/2000/svg">
<path d="M11.5585 27.753C8.49723 27.7553 5.49961 26.879 2.92154 25.2283C2.13844 24.7269 1.80423 23.7519 2.11502 22.8755C2.42581 21.9991 3.29962 21.4526 4.22365 21.5565C4.5448 21.5927 4.85903 21.611 5.17 21.611H5.17208C5.61496 21.6115 6.05464 21.5745 6.48679 21.5018C5.70047 20.7239 5.10804 19.7656 4.76494 18.7041C4.66775 18.4034 4.64474 18.0898 4.69085 17.7875C4.62475 17.7134 4.56014 17.6377 4.49706 17.5606C3.48579 16.3235 2.93356 14.7748 2.934 13.177C2.934 13.1768 2.934 13.1767 2.934 13.1765C2.934 13.1764 2.934 13.1763 2.934 13.1762L2.934 13.117C2.934 12.6678 3.08468 12.2399 3.35057 11.8952C3.10734 11.1897 2.97468 10.4322 2.974 9.6431C2.96758 8.41442 3.29311 7.20676 3.91627 6.14772C4.24799 5.58399 4.8344 5.21808 5.48656 5.16789C6.13872 5.11771 6.77421 5.3896 7.18826 5.89595C8.84035 7.9163 11.1314 9.38953 13.75 9.99679C13.849 9.41969 14.0214 8.85387 14.2659 8.31358C14.8944 6.92484 15.9638 5.78244 17.308 5.06381C18.6523 4.34517 20.1963 4.09049 21.7001 4.33933C22.7887 4.51945 23.8121 4.95608 24.6893 5.60574C25.2524 5.42399 25.786 5.18462 26.2829 4.89464C26.9992 4.47664 27.8991 4.54402 28.5451 5.06402C29.1343 5.53831 29.4008 6.29939 29.2494 7.02823C29.5641 7.28 29.7989 7.62392 29.9165 8.01823C30.0867 8.58869 29.9939 9.20532 29.6634 9.70044C29.0689 10.591 28.3582 11.3961 27.5513 12.095M11.5585 27.753C11.558 27.753 11.5575 27.753 11.557 27.753V25.753L11.5585 27.753ZM11.5585 27.753C21.7903 27.7522 27.3879 19.3711 27.5513 12.095M27.5513 12.095C27.2808 12.3293 26.9995 12.5517 26.7082 12.7614L25.9934 11.768L25.6514 11.2928L28.7589 10.4004C28.1604 10.664 27.5421 10.8778 26.9104 11.0401L27.5349 10.9955C27.5551 11.2777 27.555 11.5491 27.555 11.7458L27.555 11.768C27.555 11.8767 27.5538 11.9858 27.5513 12.095Z" fill="black" stroke="white" stroke-width="4" stroke-linejoin="round"/>
</svg>
