<svg width="32" height="32" viewBox="0 0 32 32" fill="none" xmlns="http://www.w3.org/2000/svg">
    <mask id="path-1-outside-1_201_41" maskUnits="userSpaceOnUse" x="0" y="0.0010004" width="32" height="32"
          fill="black">
        <rect fill="white" y="0.0010004" width="32" height="32"/>
        <path d="M13.489 4.004L14.218 4.001H17.782L18.512 4.004L19.426 4.014L19.859 4.021L20.277 4.032L20.68 4.046L21.068 4.062L21.442 4.083L21.802 4.108L22.147 4.138L22.48 4.171C24.22 4.367 25.413 4.787 26.313 5.687C27.213 6.587 27.633 7.779 27.829 9.52L27.863 9.853L27.892 10.199L27.917 10.559L27.937 10.932L27.962 11.52L27.974 11.93L27.987 12.574L27.996 13.489L28 14.469L27.999 17.782L27.996 18.512L27.986 19.426L27.979 19.859L27.968 20.277L27.954 20.68L27.938 21.068L27.917 21.442L27.892 21.802L27.862 22.147L27.829 22.48C27.633 24.22 27.213 25.413 26.313 26.313C25.413 27.213 24.221 27.633 22.48 27.829L22.147 27.863L21.801 27.892L21.441 27.917L21.068 27.937L20.48 27.962L20.07 27.974L19.426 27.987L18.511 27.996L17.531 28L14.218 27.999L13.488 27.996L12.574 27.986L12.141 27.979L11.723 27.968L11.32 27.954L10.932 27.938L10.558 27.917L10.198 27.892L9.853 27.862L9.52 27.829C7.78 27.633 6.587 27.213 5.687 26.313C4.787 25.413 4.367 24.221 4.171 22.48L4.137 22.147L4.108 21.801L4.083 21.441L4.063 21.068L4.038 20.48L4.026 20.07L4.013 19.426L4.004 18.511L4 17.531L4.001 14.218L4.004 13.488L4.014 12.574L4.021 12.141L4.032 11.723L4.046 11.32L4.062 10.932L4.083 10.558L4.108 10.198L4.138 9.853L4.171 9.52C4.367 7.78 4.787 6.587 5.687 5.687C6.587 4.787 7.779 4.367 9.52 4.171L9.853 4.137L10.199 4.108L10.559 4.083L10.932 4.063L11.52 4.038L11.93 4.026L12.574 4.013L13.489 4.004V4.004ZM10.79 11.3H8.05C8.18 17.54 11.3 21.29 16.77 21.29H17.08V17.72C19.09 17.92 20.61 19.39 21.22 21.29H24.06C23.28 18.45 21.23 16.88 19.95 16.28C21.23 15.54 23.03 13.74 23.46 11.3H20.88C20.32 13.28 18.66 15.08 17.08 15.25V11.3H14.5V18.22C12.9 17.82 10.88 15.88 10.79 11.3V11.3Z"/>
    </mask>
    <path d="M13.489 4.004L14.218 4.001H17.782L18.512 4.004L19.426 4.014L19.859 4.021L20.277 4.032L20.68 4.046L21.068 4.062L21.442 4.083L21.802 4.108L22.147 4.138L22.48 4.171C24.22 4.367 25.413 4.787 26.313 5.687C27.213 6.587 27.633 7.779 27.829 9.52L27.863 9.853L27.892 10.199L27.917 10.559L27.937 10.932L27.962 11.52L27.974 11.93L27.987 12.574L27.996 13.489L28 14.469L27.999 17.782L27.996 18.512L27.986 19.426L27.979 19.859L27.968 20.277L27.954 20.68L27.938 21.068L27.917 21.442L27.892 21.802L27.862 22.147L27.829 22.48C27.633 24.22 27.213 25.413 26.313 26.313C25.413 27.213 24.221 27.633 22.48 27.829L22.147 27.863L21.801 27.892L21.441 27.917L21.068 27.937L20.48 27.962L20.07 27.974L19.426 27.987L18.511 27.996L17.531 28L14.218 27.999L13.488 27.996L12.574 27.986L12.141 27.979L11.723 27.968L11.32 27.954L10.932 27.938L10.558 27.917L10.198 27.892L9.853 27.862L9.52 27.829C7.78 27.633 6.587 27.213 5.687 26.313C4.787 25.413 4.367 24.221 4.171 22.48L4.137 22.147L4.108 21.801L4.083 21.441L4.063 21.068L4.038 20.48L4.026 20.07L4.013 19.426L4.004 18.511L4 17.531L4.001 14.218L4.004 13.488L4.014 12.574L4.021 12.141L4.032 11.723L4.046 11.32L4.062 10.932L4.083 10.558L4.108 10.198L4.138 9.853L4.171 9.52C4.367 7.78 4.787 6.587 5.687 5.687C6.587 4.787 7.779 4.367 9.52 4.171L9.853 4.137L10.199 4.108L10.559 4.083L10.932 4.063L11.52 4.038L11.93 4.026L12.574 4.013L13.489 4.004V4.004ZM10.79 11.3H8.05C8.18 17.54 11.3 21.29 16.77 21.29H17.08V17.72C19.09 17.92 20.61 19.39 21.22 21.29H24.06C23.28 18.45 21.23 16.88 19.95 16.28C21.23 15.54 23.03 13.74 23.46 11.3H20.88C20.32 13.28 18.66 15.08 17.08 15.25V11.3H14.5V18.22C12.9 17.82 10.88 15.88 10.79 11.3V11.3Z"
          fill="black"/>
    <path d="M13.489 4.004L14.218 4.001H17.782L18.512 4.004L19.426 4.014L19.859 4.021L20.277 4.032L20.68 4.046L21.068 4.062L21.442 4.083L21.802 4.108L22.147 4.138L22.48 4.171C24.22 4.367 25.413 4.787 26.313 5.687C27.213 6.587 27.633 7.779 27.829 9.52L27.863 9.853L27.892 10.199L27.917 10.559L27.937 10.932L27.962 11.52L27.974 11.93L27.987 12.574L27.996 13.489L28 14.469L27.999 17.782L27.996 18.512L27.986 19.426L27.979 19.859L27.968 20.277L27.954 20.68L27.938 21.068L27.917 21.442L27.892 21.802L27.862 22.147L27.829 22.48C27.633 24.22 27.213 25.413 26.313 26.313C25.413 27.213 24.221 27.633 22.48 27.829L22.147 27.863L21.801 27.892L21.441 27.917L21.068 27.937L20.48 27.962L20.07 27.974L19.426 27.987L18.511 27.996L17.531 28L14.218 27.999L13.488 27.996L12.574 27.986L12.141 27.979L11.723 27.968L11.32 27.954L10.932 27.938L10.558 27.917L10.198 27.892L9.853 27.862L9.52 27.829C7.78 27.633 6.587 27.213 5.687 26.313C4.787 25.413 4.367 24.221 4.171 22.48L4.137 22.147L4.108 21.801L4.083 21.441L4.063 21.068L4.038 20.48L4.026 20.07L4.013 19.426L4.004 18.511L4 17.531L4.001 14.218L4.004 13.488L4.014 12.574L4.021 12.141L4.032 11.723L4.046 11.32L4.062 10.932L4.083 10.558L4.108 10.198L4.138 9.853L4.171 9.52C4.367 7.78 4.787 6.587 5.687 5.687C6.587 4.787 7.779 4.367 9.52 4.171L9.853 4.137L10.199 4.108L10.559 4.083L10.932 4.063L11.52 4.038L11.93 4.026L12.574 4.013L13.489 4.004V4.004ZM10.79 11.3H8.05C8.18 17.54 11.3 21.29 16.77 21.29H17.08V17.72C19.09 17.92 20.61 19.39 21.22 21.29H24.06C23.28 18.45 21.23 16.88 19.95 16.28C21.23 15.54 23.03 13.74 23.46 11.3H20.88C20.32 13.28 18.66 15.08 17.08 15.25V11.3H14.5V18.22C12.9 17.82 10.88 15.88 10.79 11.3V11.3Z"
          stroke="white" stroke-width="8" stroke-linejoin="round" mask="url(#path-1-outside-1_201_41)"/>
</svg>
