<svg width="32" height="32" viewBox="0 0 32 32" fill="none" xmlns="http://www.w3.org/2000/svg">
<rect width="32" height="32" rx="8" transform="matrix(-1 0 0 1 32 0)" fill="white"/>
<path d="M11.42 14.05C11.24 13.89 10.96 13.82 10.58 13.82H10L10.02 16.26L10.06 18.71L10.62 18.69C11.03 18.69 11.25 18.62 11.45 18.43C11.69 18.19 11.71 18.07 11.71 16.23C11.71 14.32 11.69 14.27 11.42 14.05V14.05ZM4 8.94003V23.06H28V8.94003H4ZM12.56 19.3C12.12 19.88 11.5 20.07 10.03 20.07H8.71V12.53H10.11C11.78 12.53 12.27 12.71 12.71 13.43C12.98 13.86 13 14.03 13.03 16C13.08 18.23 13.01 18.73 12.56 19.3V19.3ZM17.65 13.83H15.18V15.6H16.7V16.88L15.98 16.92L15.23 16.95V18.72L16.45 18.75L17.65 18.79V20.07H16.05C14.52 20.07 14.45 20.06 14.18 19.77L13.88 19.49V16.33C13.88 13.31 13.89 13.15 14.13 12.85C14.36 12.54 14.38 12.54 16.01 12.54H17.65V13.84V13.83ZM22.33 19.28C22.16 19.71 21.69 20.07 21.33 20.07C21.15 20.07 20.88 19.92 20.66 19.68C20.34 19.36 20.21 19.05 19.84 17.6L18.94 14.21L18.49 12.54H19.25C19.65 12.54 20 12.56 20 12.59C20 12.65 21.16 17.13 21.26 17.42C21.3 17.57 21.58 16.72 21.99 15.12L22.65 12.6L23.39 12.56C23.79 12.54 24.12 12.56 24.12 12.6C24.12 12.74 22.45 18.98 22.32 19.28H22.33Z" fill="black"/>
</svg>
