<svg width="32" height="32" viewBox="0 0 32 32" fill="none" xmlns="http://www.w3.org/2000/svg">
<rect width="32" height="32" rx="8" transform="matrix(-1 0 0 1 32 0)" fill="white"/>
<path d="M28 16.073C28 9.44603 22.627 4.07303 16 4.07303C9.373 4.07303 4 9.44603 4 16.073C4 22.063 8.388 27.027 14.125 27.927V19.542H11.078V16.072H14.125V13.43C14.125 10.423 15.917 8.76103 18.658 8.76103C19.97 8.76103 21.344 8.99603 21.344 8.99603V11.949H19.83C18.339 11.949 17.874 12.874 17.874 13.823V16.073H21.202L20.67 19.543H17.874V27.928C23.612 27.027 28 22.062 28 16.073Z" fill="black"/>
</svg>
