<svg width="32" height="32" viewBox="0 0 32 32" fill="none" xmlns="http://www.w3.org/2000/svg">
<rect width="32" height="32" rx="8" transform="matrix(-1 0 0 1 32 0)" fill="white"/>
<path d="M16 4.00003C12.74 4.00003 12.333 4.01503 11.053 4.07203C9.775 4.13203 8.905 4.33303 8.14 4.63003C7.351 4.93603 6.681 5.34703 6.014 6.01403C5.347 6.68103 4.935 7.35003 4.63 8.14003C4.333 8.90503 4.131 9.77503 4.072 11.053C4.012 12.333 4 12.74 4 16C4 19.26 4.015 19.667 4.072 20.947C4.132 22.224 4.333 23.095 4.63 23.86C4.936 24.648 5.347 25.319 6.014 25.986C6.681 26.652 7.35 27.065 8.14 27.37C8.906 27.666 9.776 27.869 11.053 27.928C12.333 27.988 12.74 28 16 28C19.26 28 19.667 27.985 20.947 27.928C22.224 27.868 23.095 27.666 23.86 27.37C24.648 27.064 25.319 26.652 25.986 25.986C26.652 25.319 27.065 24.651 27.37 23.86C27.666 23.095 27.869 22.224 27.928 20.947C27.988 19.667 28 19.26 28 16C28 12.74 27.985 12.333 27.928 11.053C27.868 9.77603 27.666 8.90403 27.37 8.14003C27.064 7.35103 26.652 6.68103 25.986 6.01403C25.319 5.34703 24.651 4.93503 23.86 4.63003C23.095 4.33303 22.224 4.13103 20.947 4.07203C19.667 4.01203 19.26 4.00003 16 4.00003ZM16 6.16003C19.203 6.16003 19.585 6.17603 20.85 6.23103C22.02 6.28603 22.655 6.48003 23.077 6.64603C23.639 6.86303 24.037 7.12303 24.459 7.54203C24.878 7.96203 25.138 8.36103 25.355 8.92303C25.519 9.34503 25.715 9.98003 25.768 11.15C25.825 12.416 25.838 12.796 25.838 16C25.838 19.204 25.823 19.585 25.764 20.85C25.703 22.02 25.508 22.655 25.343 23.077C25.119 23.639 24.864 24.037 24.444 24.459C24.025 24.878 23.62 25.138 23.064 25.355C22.644 25.519 21.999 25.715 20.829 25.768C19.555 25.825 19.18 25.838 15.97 25.838C12.759 25.838 12.384 25.823 11.111 25.764C9.94 25.703 9.295 25.508 8.875 25.343C8.306 25.119 7.915 24.864 7.496 24.444C7.075 24.025 6.806 23.62 6.596 23.064C6.431 22.644 6.237 21.999 6.176 20.829C6.131 19.569 6.115 19.18 6.115 15.985C6.115 12.789 6.131 12.399 6.176 11.124C6.237 9.95403 6.431 9.31003 6.596 8.89003C6.806 8.32003 7.075 7.93003 7.496 7.50903C7.915 7.09003 8.306 6.82003 8.875 6.61103C9.295 6.44503 9.926 6.25003 11.096 6.19003C12.371 6.14503 12.746 6.13003 15.955 6.13003L16 6.16003V6.16003ZM16 9.83803C12.595 9.83803 9.838 12.598 9.838 16C9.838 19.405 12.598 22.162 16 22.162C19.405 22.162 22.162 19.402 22.162 16C22.162 12.595 19.402 9.83803 16 9.83803ZM16 20C13.79 20 12 18.21 12 16C12 13.79 13.79 12 16 12C18.21 12 20 13.79 20 16C20 18.21 18.21 20 16 20ZM23.846 9.59503C23.846 10.39 23.2 11.035 22.406 11.035C21.611 11.035 20.966 10.389 20.966 9.59503C20.966 8.80103 21.612 8.15603 22.406 8.15603C23.199 8.15503 23.846 8.80103 23.846 9.59503Z" fill="black"/>
</svg>
