<svg width="32" height="32" viewBox="0 0 32 32" fill="none" xmlns="http://www.w3.org/2000/svg">
<rect width="32" height="32" rx="8" transform="matrix(-1 0 0 1 32 0)" fill="white"/>
<path d="M16 4.00003C9.373 4.00003 4 9.37303 4 16C4 22.627 9.373 28 16 28C18.54 28 20.894 27.21 22.834 25.865L19.727 22.756C18.5523 23.4037 17.2291 23.734 15.8879 23.7142C14.5466 23.6944 13.2337 23.3252 12.0787 22.6431C10.9236 21.961 9.96641 20.9896 9.30144 19.8246C8.63647 18.6596 8.28672 17.3414 8.28672 16C8.28672 14.6586 8.63647 13.3404 9.30144 12.1754C9.96641 11.0105 10.9236 10.039 12.0787 9.35692C13.2337 8.67483 14.5466 8.30567 15.8879 8.28587C17.2291 8.26607 18.5523 8.59632 19.727 9.24403L22.834 6.13503C20.8279 4.74122 18.4427 3.99606 16 4.00003ZM25.865 9.16603L22.756 12.273C23.3872 13.4137 23.7173 14.6964 23.715 16C23.7167 17.3036 23.3867 18.5862 22.756 19.727L25.865 22.834C27.2588 20.828 28.004 18.4428 28 16C28 13.46 27.21 11.106 25.865 9.16603Z" fill="black"/>
</svg>
