<svg width="32" height="32" viewBox="0 0 32 32" fill="none" xmlns="http://www.w3.org/2000/svg">
<rect width="32" height="32" rx="8" transform="matrix(-1 0 0 1 32 0)" fill="white"/>
<path d="M11.076 25.337H6.47C6.37748 25.337 6.28606 25.3169 6.20203 25.2782C6.118 25.2395 6.04335 25.183 5.98321 25.1127C5.92306 25.0424 5.87885 24.9599 5.85362 24.8709C5.82838 24.7819 5.82271 24.6884 5.837 24.597L8.944 4.90103C9.026 4.38203 9.474 4.00003 9.998 4.00003H17.458C20.028 4.00003 22.036 4.54303 23.148 5.81003C24.158 6.96003 24.452 8.23003 24.16 10.097C24.137 10.24 24.113 10.385 24.083 10.534C23.1 15.584 19.734 17.331 15.436 17.331H13.246C12.722 17.331 12.278 17.713 12.196 18.231L11.076 25.337V25.337ZM25.222 10.917C25.0424 10.7127 24.8385 10.531 24.615 10.376C24.602 10.452 24.589 10.551 24.574 10.63C23.644 15.408 20.569 17.831 15.436 17.831H13.246C13.1114 17.8312 12.9812 17.8796 12.8792 17.9675C12.7772 18.0554 12.7101 18.1769 12.69 18.31L11.503 25.837H10.997L10.757 27.353C10.7444 27.433 10.7493 27.5148 10.7714 27.5927C10.7935 27.6706 10.8322 27.7428 10.8848 27.8043C10.9375 27.8658 11.0029 27.9151 11.0764 27.9489C11.15 27.9827 11.23 28.0001 11.311 28H15.193C15.653 28 16.043 27.666 16.115 27.212C16.175 26.952 16.875 22.36 16.931 22.122C16.9654 21.9021 17.0774 21.7017 17.2467 21.5572C17.416 21.4127 17.6314 21.3335 17.854 21.334H18.434C22.194 21.334 25.139 19.806 25.999 15.388C26.359 13.541 26.173 12 25.222 10.917Z" fill="black"/>
</svg>
