<svg width="32" height="32" viewBox="0 0 32 32" fill="none" xmlns="http://www.w3.org/2000/svg">
<rect width="32" height="32" rx="8" transform="matrix(-1 0 0 1 32 0)" fill="white"/>
<path d="M15.064 4.00003C9.17001 4.00003 4.39101 8.77803 4.39101 14.673C4.39101 20.568 9.17001 25.346 15.065 25.346C16.632 25.346 18.183 25.053 20.463 25.036C22.496 25.036 24.73 25.75 27.181 27.922C27.429 28.139 27.755 27.86 27.538 27.596C25.133 24.54 22.898 23.966 20.665 23.47C17.935 22.864 16.539 21.344 15.561 19.653C15.375 19.312 15.281 19.374 15.266 19.809C15.248 20.448 15.296 21.087 15.406 21.717H15.08C13.2081 21.7154 11.4133 20.9711 10.0896 19.6474C8.76593 18.3238 8.0216 16.529 8.02001 14.657C8.02213 12.7855 8.76672 10.9913 10.0904 9.66826C11.414 8.34519 13.2085 7.60135 15.08 7.60003C16.0762 7.60055 17.061 7.81178 17.9698 8.21985C18.8786 8.62792 19.6909 9.22359 20.3531 9.96776C21.0154 10.7119 21.5128 11.5878 21.8127 12.5378C22.1126 13.4878 22.2081 14.4905 22.093 15.48C21.565 15.387 20.556 15.372 19.843 15.434C19.579 15.465 19.61 15.589 19.812 15.621C22.139 16.055 23.737 17.498 24.109 20.12C24.124 20.182 24.202 20.197 24.233 20.15C25.217 18.4928 25.7368 16.6013 25.738 14.674C25.738 8.77803 20.96 4.00003 15.064 4.00003ZM22.708 19.077C22.6472 19.0703 22.5858 19.0816 22.5314 19.1096C22.477 19.1375 22.432 19.1808 22.402 19.234C22.278 19.452 22.372 19.87 22.604 20.243C22.836 20.615 23.054 20.801 23.21 20.801C23.365 20.801 23.504 20.615 23.442 20.134C23.412 19.87 23.256 19.266 22.852 19.11C22.805 19.089 22.751 19.087 22.708 19.077V19.077ZM20.494 20.864C20.277 20.864 20.106 20.94 19.997 21.08C19.718 21.421 19.842 22.042 20.277 22.415C20.463 22.585 20.743 22.678 21.007 22.678C21.1268 22.6811 21.2457 22.6579 21.3555 22.6098C21.4652 22.5618 21.5631 22.4901 21.642 22.4C21.891 22.058 21.752 21.592 21.27 21.189C21.022 20.972 20.743 20.864 20.494 20.864V20.864Z" fill="black"/>
</svg>
