<svg width="32" height="32" viewBox="0 0 32 32" fill="none" xmlns="http://www.w3.org/2000/svg">
<rect width="32" height="32" rx="8" transform="matrix(-1 0 0 1 32 0)" fill="white"/>
<path d="M15.944 4.00003C12.7711 4.01484 9.73324 5.28566 7.4949 7.53449C5.25656 9.78332 3.99997 12.8271 4 16C4 19.1826 5.26428 22.2349 7.51472 24.4853C9.76516 26.7357 12.8174 28 16 28C19.1826 28 22.2348 26.7357 24.4853 24.4853C26.7357 22.2349 28 19.1826 28 16C28 12.8174 26.7357 9.76519 24.4853 7.51475C22.2348 5.26431 19.1826 4.00003 16 4.00003C15.9813 3.99999 15.9627 3.99999 15.944 4.00003V4.00003ZM20.906 11.224C21.006 11.222 21.227 11.247 21.371 11.364C21.4667 11.4471 21.5277 11.5631 21.542 11.689C21.558 11.782 21.578 11.995 21.562 12.161C21.382 14.059 20.6 18.663 20.202 20.788C20.034 21.688 19.703 21.989 19.382 22.018C18.686 22.083 18.157 21.558 17.482 21.116C16.426 20.423 15.829 19.992 14.804 19.316C13.619 18.536 14.387 18.106 15.062 17.406C15.239 17.222 18.309 14.429 18.369 14.176C18.376 14.144 18.383 14.026 18.313 13.964C18.243 13.902 18.139 13.923 18.064 13.94C17.958 13.964 16.271 15.08 13.003 17.285C12.523 17.615 12.09 17.775 11.701 17.765C11.273 17.757 10.449 17.524 9.836 17.325C9.084 17.08 8.487 16.951 8.539 16.536C8.566 16.32 8.864 16.099 9.432 15.873C12.93 14.349 15.262 13.344 16.43 12.859C19.762 11.473 20.455 11.232 20.906 11.224V11.224Z" fill="black"/>
</svg>
