<svg width="32" height="32" viewBox="0 0 32 32" fill="none" xmlns="http://www.w3.org/2000/svg">
<rect width="32" height="32" rx="8" transform="matrix(-1 0 0 1 32 0)" fill="white"/>
<path d="M27.953 8.57003C27.0545 8.96563 26.1026 9.22677 25.128 9.34503C26.1541 8.72828 26.9224 7.76107 27.291 6.62203C26.34 7.17703 25.286 7.58103 24.164 7.80603C23.4238 7.01446 22.4429 6.48945 21.3736 6.31253C20.3044 6.13561 19.2067 6.31668 18.2509 6.82762C17.2952 7.33856 16.5349 8.15078 16.0881 9.13815C15.6412 10.1255 15.533 11.2328 15.78 12.288C11.69 12.095 8.067 10.13 5.64 7.16203C5.19879 7.91184 4.96866 8.76705 4.974 9.63703C4.974 11.347 5.844 12.85 7.162 13.733C6.38086 13.7082 5.61697 13.497 4.934 13.117V13.177C4.93356 14.3134 5.32627 15.415 6.04551 16.2948C6.76474 17.1746 7.76621 17.7785 8.88 18.004C8.1583 18.1974 7.40241 18.2265 6.668 18.089C6.98412 19.067 7.59766 19.922 8.42301 20.5345C9.24837 21.1471 10.2444 21.4867 11.272 21.506C9.53153 22.872 7.38248 23.6133 5.17 23.611C4.78 23.611 4.391 23.588 4 23.544C6.25571 24.9884 8.87851 25.755 11.557 25.753C20.61 25.753 25.555 18.257 25.555 11.768C25.555 11.558 25.555 11.348 25.54 11.138C26.506 10.4429 27.3392 9.57985 28 8.59003L27.953 8.57003Z" fill="black"/>
</svg>
