<svg width="32" height="32" viewBox="0 0 32 32" fill="none" xmlns="http://www.w3.org/2000/svg">
<path d="M12.652 0.004L13.624 0H18.376L19.3493 0.004L20.568 0.0173333L21.1453 0.0266667L21.7027 0.0413333L22.24 0.06L22.7573 0.0813333L23.256 0.109333L23.736 0.142667L24.196 0.182667L24.64 0.226667C26.96 0.488 28.5507 1.048 29.7507 2.248C30.9507 3.448 31.5107 5.03733 31.772 7.35867L31.8173 7.80267L31.856 8.264L31.8893 8.744L31.916 9.24133L31.9493 10.0253L31.9653 10.572L31.9827 11.4307L31.9947 12.6507L32 13.9573L31.9987 18.3747L31.9947 19.348L31.9813 20.5667L31.972 21.144L31.9573 21.7013L31.9387 22.2387L31.9173 22.756L31.8893 23.2547L31.856 23.7347L31.816 24.1947L31.772 24.6387C31.5107 26.9587 30.9507 28.5493 29.7507 29.7493C28.5507 30.9493 26.9613 31.5093 24.64 31.7707L24.196 31.816L23.7347 31.8547L23.2547 31.888L22.7573 31.9147L21.9733 31.948L21.4267 31.964L20.568 31.9813L19.348 31.9933L18.0413 31.9987L13.624 31.9973L12.6507 31.9933L11.432 31.98L10.8547 31.9707L10.2973 31.956L9.76 31.9373L9.24267 31.916L8.744 31.888L8.264 31.8547L7.804 31.8147L7.36 31.7707C5.04 31.5093 3.44933 30.9493 2.24933 29.7493C1.04933 28.5493 0.489333 26.96 0.228 24.6387L0.182667 24.1947L0.144 23.7333L0.110667 23.2533L0.084 22.756L0.0506667 21.972L0.0346667 21.4253L0.0173333 20.5667L0.00533333 19.3467L0 18.04L0.00133333 13.6227L0.00533333 12.6493L0.0186667 11.4307L0.028 10.8533L0.0426667 10.296L0.0613333 9.75867L0.0826667 9.24133L0.110667 8.74267L0.144 8.26267L0.184 7.80267L0.228 7.35867C0.489333 5.03867 1.04933 3.448 2.24933 2.248C3.44933 1.048 5.03867 0.488 7.36 0.226667L7.804 0.181333L8.26533 0.142667L8.74533 0.109333L9.24267 0.0826667L10.0267 0.0493333L10.5733 0.0333333L11.432 0.016L12.652 0.004Z" fill="white"/>
<path d="M5 5V27.08H9.04417V5H5ZM19.744 5C15.1785 5 11.463 8.71833 11.463 13.2896C11.463 17.8465 15.1785 21.5533 19.744 21.5533C24.296 21.5533 28 17.8465 28 13.2896C28 8.71833 24.297 5 19.744 5Z" fill="black"/>
</svg>
