<svg width="32" height="32" viewBox="0 0 32 32" fill="none" xmlns="http://www.w3.org/2000/svg">
<path d="M12.652 0.004L13.624 0H18.376L19.3493 0.004L20.568 0.0173333L21.1453 0.0266667L21.7027 0.0413333L22.24 0.06L22.7573 0.0813333L23.256 0.109333L23.736 0.142667L24.196 0.182667L24.64 0.226667C26.96 0.488 28.5507 1.048 29.7507 2.248C30.9507 3.448 31.5107 5.03733 31.772 7.35867L31.8173 7.80267L31.856 8.264L31.8893 8.744L31.916 9.24133L31.9493 10.0253L31.9653 10.572L31.9827 11.4307L31.9947 12.6507L32 13.9573L31.9987 18.3747L31.9947 19.348L31.9813 20.5667L31.972 21.144L31.9573 21.7013L31.9387 22.2387L31.9173 22.756L31.8893 23.2547L31.856 23.7347L31.816 24.1947L31.772 24.6387C31.5107 26.9587 30.9507 28.5493 29.7507 29.7493C28.5507 30.9493 26.9613 31.5093 24.64 31.7707L24.196 31.816L23.7347 31.8547L23.2547 31.888L22.7573 31.9147L21.9733 31.948L21.4267 31.964L20.568 31.9813L19.348 31.9933L18.0413 31.9987L13.624 31.9973L12.6507 31.9933L11.432 31.98L10.8547 31.9707L10.2973 31.956L9.76 31.9373L9.24267 31.916L8.744 31.888L8.264 31.8547L7.804 31.8147L7.36 31.7707C5.04 31.5093 3.44933 30.9493 2.24933 29.7493C1.04933 28.5493 0.489333 26.96 0.228 24.6387L0.182667 24.1947L0.144 23.7333L0.110667 23.2533L0.084 22.756L0.0506667 21.972L0.0346667 21.4253L0.0173333 20.5667L0.00533333 19.3467L0 18.04L0.00133333 13.6227L0.00533333 12.6493L0.0186667 11.4307L0.028 10.8533L0.0426667 10.296L0.0613333 9.75867L0.0826667 9.24133L0.110667 8.74267L0.144 8.26267L0.184 7.80267L0.228 7.35867C0.489333 5.03867 1.04933 3.448 2.24933 2.248C3.44933 1.048 5.03867 0.488 7.36 0.226667L7.804 0.181333L8.26533 0.142667L8.74533 0.109333L9.24267 0.0826667L10.0267 0.0493333L10.5733 0.0333333L11.432 0.016L12.652 0.004Z" fill="white"/>
<path d="M11.076 25.337H6.47C6.37748 25.337 6.28606 25.3169 6.20203 25.2782C6.118 25.2395 6.04335 25.183 5.98321 25.1127C5.92306 25.0424 5.87885 24.9599 5.85362 24.8709C5.82838 24.7819 5.82271 24.6884 5.837 24.597L8.944 4.90103C9.026 4.38203 9.474 4.00003 9.998 4.00003H17.458C20.028 4.00003 22.036 4.54303 23.148 5.81003C24.158 6.96003 24.452 8.23003 24.16 10.097C24.137 10.24 24.113 10.385 24.083 10.534C23.1 15.584 19.734 17.331 15.436 17.331H13.246C12.722 17.331 12.278 17.713 12.196 18.231L11.076 25.337V25.337ZM25.222 10.917C25.0424 10.7127 24.8385 10.531 24.615 10.376C24.602 10.452 24.589 10.551 24.574 10.63C23.644 15.408 20.569 17.831 15.436 17.831H13.246C13.1114 17.8312 12.9812 17.8796 12.8792 17.9675C12.7772 18.0554 12.7101 18.1769 12.69 18.31L11.503 25.837H10.997L10.757 27.353C10.7444 27.433 10.7493 27.5148 10.7714 27.5927C10.7935 27.6706 10.8322 27.7428 10.8848 27.8043C10.9375 27.8658 11.0029 27.9151 11.0764 27.9489C11.15 27.9827 11.23 28.0001 11.311 28H15.193C15.653 28 16.043 27.666 16.115 27.212C16.175 26.952 16.875 22.36 16.931 22.122C16.9654 21.9021 17.0774 21.7017 17.2467 21.5572C17.416 21.4127 17.6314 21.3335 17.854 21.334H18.434C22.194 21.334 25.139 19.806 25.999 15.388C26.359 13.541 26.173 12 25.222 10.917Z" fill="black"/>
</svg>
