<svg width="32" height="32" viewBox="0 0 32 32" fill="none" xmlns="http://www.w3.org/2000/svg">
<path d="M12.652 0.004L13.624 0H18.376L19.3493 0.004L20.568 0.0173333L21.1453 0.0266667L21.7027 0.0413333L22.24 0.06L22.7573 0.0813333L23.256 0.109333L23.736 0.142667L24.196 0.182667L24.64 0.226667C26.96 0.488 28.5507 1.048 29.7507 2.248C30.9507 3.448 31.5107 5.03733 31.772 7.35867L31.8173 7.80267L31.856 8.264L31.8893 8.744L31.916 9.24133L31.9493 10.0253L31.9653 10.572L31.9827 11.4307L31.9947 12.6507L32 13.9573L31.9987 18.3747L31.9947 19.348L31.9813 20.5667L31.972 21.144L31.9573 21.7013L31.9387 22.2387L31.9173 22.756L31.8893 23.2547L31.856 23.7347L31.816 24.1947L31.772 24.6387C31.5107 26.9587 30.9507 28.5493 29.7507 29.7493C28.5507 30.9493 26.9613 31.5093 24.64 31.7707L24.196 31.816L23.7347 31.8547L23.2547 31.888L22.7573 31.9147L21.9733 31.948L21.4267 31.964L20.568 31.9813L19.348 31.9933L18.0413 31.9987L13.624 31.9973L12.6507 31.9933L11.432 31.98L10.8547 31.9707L10.2973 31.956L9.76 31.9373L9.24267 31.916L8.744 31.888L8.264 31.8547L7.804 31.8147L7.36 31.7707C5.04 31.5093 3.44933 30.9493 2.24933 29.7493C1.04933 28.5493 0.489333 26.96 0.228 24.6387L0.182667 24.1947L0.144 23.7333L0.110667 23.2533L0.084 22.756L0.0506667 21.972L0.0346667 21.4253L0.0173333 20.5667L0.00533333 19.3467L0 18.04L0.00133333 13.6227L0.00533333 12.6493L0.0186667 11.4307L0.028 10.8533L0.0426667 10.296L0.0613333 9.75867L0.0826667 9.24133L0.110667 8.74267L0.144 8.26267L0.184 7.80267L0.228 7.35867C0.489333 5.03867 1.04933 3.448 2.24933 2.248C3.44933 1.048 5.03867 0.488 7.36 0.226667L7.804 0.181333L8.26533 0.142667L8.74533 0.109333L9.24267 0.0826667L10.0267 0.0493333L10.5733 0.0333333L11.432 0.016L12.652 0.004Z" fill="white"/>
<path d="M15.064 4.00003C9.17001 4.00003 4.39101 8.77803 4.39101 14.673C4.39101 20.568 9.17001 25.346 15.065 25.346C16.632 25.346 18.183 25.053 20.463 25.036C22.496 25.036 24.73 25.75 27.181 27.922C27.429 28.139 27.755 27.86 27.538 27.596C25.133 24.54 22.898 23.966 20.665 23.47C17.935 22.864 16.539 21.344 15.561 19.653C15.375 19.312 15.281 19.374 15.266 19.809C15.248 20.448 15.296 21.087 15.406 21.717H15.08C13.2081 21.7154 11.4133 20.9711 10.0896 19.6474C8.76593 18.3238 8.0216 16.529 8.02001 14.657C8.02213 12.7855 8.76672 10.9913 10.0904 9.66826C11.414 8.34519 13.2085 7.60135 15.08 7.60003C16.0762 7.60055 17.061 7.81178 17.9698 8.21985C18.8786 8.62792 19.6909 9.22359 20.3531 9.96776C21.0154 10.7119 21.5128 11.5878 21.8127 12.5378C22.1126 13.4878 22.2081 14.4905 22.093 15.48C21.565 15.387 20.556 15.372 19.843 15.434C19.579 15.465 19.61 15.589 19.812 15.621C22.139 16.055 23.737 17.498 24.109 20.12C24.124 20.182 24.202 20.197 24.233 20.15C25.217 18.4928 25.7368 16.6013 25.738 14.674C25.738 8.77803 20.96 4.00003 15.064 4.00003ZM22.708 19.077C22.6472 19.0703 22.5858 19.0816 22.5314 19.1096C22.477 19.1375 22.432 19.1808 22.402 19.234C22.278 19.452 22.372 19.87 22.604 20.243C22.836 20.615 23.054 20.801 23.21 20.801C23.365 20.801 23.504 20.615 23.442 20.134C23.412 19.87 23.256 19.266 22.852 19.11C22.805 19.089 22.751 19.087 22.708 19.077V19.077ZM20.494 20.864C20.277 20.864 20.106 20.94 19.997 21.08C19.718 21.421 19.842 22.042 20.277 22.415C20.463 22.585 20.743 22.678 21.007 22.678C21.1268 22.6811 21.2457 22.6579 21.3555 22.6098C21.4652 22.5618 21.5631 22.4901 21.642 22.4C21.891 22.058 21.752 21.592 21.27 21.189C21.022 20.972 20.743 20.864 20.494 20.864V20.864Z" fill="black"/>
</svg>
