<svg width="32" height="32" viewBox="0 0 32 32" fill="none" xmlns="http://www.w3.org/2000/svg">
<path d="M12.652 0.004L13.624 0H18.376L19.3493 0.004L20.568 0.0173333L21.1453 0.0266667L21.7027 0.0413333L22.24 0.06L22.7573 0.0813333L23.256 0.109333L23.736 0.142667L24.196 0.182667L24.64 0.226667C26.96 0.488 28.5507 1.048 29.7507 2.248C30.9507 3.448 31.5107 5.03733 31.772 7.35867L31.8173 7.80267L31.856 8.264L31.8893 8.744L31.916 9.24133L31.9493 10.0253L31.9653 10.572L31.9827 11.4307L31.9947 12.6507L32 13.9573L31.9987 18.3747L31.9947 19.348L31.9813 20.5667L31.972 21.144L31.9573 21.7013L31.9387 22.2387L31.9173 22.756L31.8893 23.2547L31.856 23.7347L31.816 24.1947L31.772 24.6387C31.5107 26.9587 30.9507 28.5493 29.7507 29.7493C28.5507 30.9493 26.9613 31.5093 24.64 31.7707L24.196 31.816L23.7347 31.8547L23.2547 31.888L22.7573 31.9147L21.9733 31.948L21.4267 31.964L20.568 31.9813L19.348 31.9933L18.0413 31.9987L13.624 31.9973L12.6507 31.9933L11.432 31.98L10.8547 31.9707L10.2973 31.956L9.76 31.9373L9.24267 31.916L8.744 31.888L8.264 31.8547L7.804 31.8147L7.36 31.7707C5.04 31.5093 3.44933 30.9493 2.24933 29.7493C1.04933 28.5493 0.489333 26.96 0.228 24.6387L0.182667 24.1947L0.144 23.7333L0.110667 23.2533L0.084 22.756L0.0506667 21.972L0.0346667 21.4253L0.0173333 20.5667L0.00533333 19.3467L0 18.04L0.00133333 13.6227L0.00533333 12.6493L0.0186667 11.4307L0.028 10.8533L0.0426667 10.296L0.0613333 9.75867L0.0826667 9.24133L0.110667 8.74267L0.144 8.26267L0.184 7.80267L0.228 7.35867C0.489333 5.03867 1.04933 3.448 2.24933 2.248C3.44933 1.048 5.03867 0.488 7.36 0.226667L7.804 0.181333L8.26533 0.142667L8.74533 0.109333L9.24267 0.0826667L10.0267 0.0493333L10.5733 0.0333333L11.432 0.016L12.652 0.004Z" fill="white"/>
<path d="M15.944 4.00003C12.7711 4.01484 9.73324 5.28566 7.4949 7.53449C5.25656 9.78332 3.99997 12.8271 4 16C4 19.1826 5.26428 22.2349 7.51472 24.4853C9.76516 26.7357 12.8174 28 16 28C19.1826 28 22.2348 26.7357 24.4853 24.4853C26.7357 22.2349 28 19.1826 28 16C28 12.8174 26.7357 9.76519 24.4853 7.51475C22.2348 5.26431 19.1826 4.00003 16 4.00003C15.9813 3.99999 15.9627 3.99999 15.944 4.00003V4.00003ZM20.906 11.224C21.006 11.222 21.227 11.247 21.371 11.364C21.4667 11.4471 21.5277 11.5631 21.542 11.689C21.558 11.782 21.578 11.995 21.562 12.161C21.382 14.059 20.6 18.663 20.202 20.788C20.034 21.688 19.703 21.989 19.382 22.018C18.686 22.083 18.157 21.558 17.482 21.116C16.426 20.423 15.829 19.992 14.804 19.316C13.619 18.536 14.387 18.106 15.062 17.406C15.239 17.222 18.309 14.429 18.369 14.176C18.376 14.144 18.383 14.026 18.313 13.964C18.243 13.902 18.139 13.923 18.064 13.94C17.958 13.964 16.271 15.08 13.003 17.285C12.523 17.615 12.09 17.775 11.701 17.765C11.273 17.757 10.449 17.524 9.836 17.325C9.084 17.08 8.487 16.951 8.539 16.536C8.566 16.32 8.864 16.099 9.432 15.873C12.93 14.349 15.262 13.344 16.43 12.859C19.762 11.473 20.455 11.232 20.906 11.224V11.224Z" fill="black"/>
</svg>
