<svg width="32" height="32" viewBox="0 0 32 32" fill="none" xmlns="http://www.w3.org/2000/svg">
<path d="M12.652 0.004L13.624 0H18.376L19.3493 0.004L20.568 0.0173333L21.1453 0.0266667L21.7027 0.0413333L22.24 0.06L22.7573 0.0813333L23.256 0.109333L23.736 0.142667L24.196 0.182667L24.64 0.226667C26.96 0.488 28.5507 1.048 29.7507 2.248C30.9507 3.448 31.5107 5.03733 31.772 7.35867L31.8173 7.80267L31.856 8.264L31.8893 8.744L31.916 9.24133L31.9493 10.0253L31.9653 10.572L31.9827 11.4307L31.9947 12.6507L32 13.9573L31.9987 18.3747L31.9947 19.348L31.9813 20.5667L31.972 21.144L31.9573 21.7013L31.9387 22.2387L31.9173 22.756L31.8893 23.2547L31.856 23.7347L31.816 24.1947L31.772 24.6387C31.5107 26.9587 30.9507 28.5493 29.7507 29.7493C28.5507 30.9493 26.9613 31.5093 24.64 31.7707L24.196 31.816L23.7347 31.8547L23.2547 31.888L22.7573 31.9147L21.9733 31.948L21.4267 31.964L20.568 31.9813L19.348 31.9933L18.0413 31.9987L13.624 31.9973L12.6507 31.9933L11.432 31.98L10.8547 31.9707L10.2973 31.956L9.76 31.9373L9.24267 31.916L8.744 31.888L8.264 31.8547L7.804 31.8147L7.36 31.7707C5.04 31.5093 3.44933 30.9493 2.24933 29.7493C1.04933 28.5493 0.489333 26.96 0.228 24.6387L0.182667 24.1947L0.144 23.7333L0.110667 23.2533L0.084 22.756L0.0506667 21.972L0.0346667 21.4253L0.0173333 20.5667L0.00533333 19.3467L0 18.04L0.00133333 13.6227L0.00533333 12.6493L0.0186667 11.4307L0.028 10.8533L0.0426667 10.296L0.0613333 9.75867L0.0826667 9.24133L0.110667 8.74267L0.144 8.26267L0.184 7.80267L0.228 7.35867C0.489333 5.03867 1.04933 3.448 2.24933 2.248C3.44933 1.048 5.03867 0.488 7.36 0.226667L7.804 0.181333L8.26533 0.142667L8.74533 0.109333L9.24267 0.0826667L10.0267 0.0493333L10.5733 0.0333333L11.432 0.016L12.652 0.004Z" fill="white"/>
<path d="M27.953 8.57003C27.0545 8.96563 26.1026 9.22677 25.128 9.34503C26.1541 8.72828 26.9224 7.76107 27.291 6.62203C26.34 7.17703 25.286 7.58103 24.164 7.80603C23.4238 7.01446 22.4429 6.48945 21.3736 6.31253C20.3044 6.13561 19.2067 6.31668 18.2509 6.82762C17.2952 7.33856 16.5349 8.15078 16.0881 9.13815C15.6412 10.1255 15.533 11.2328 15.78 12.288C11.69 12.095 8.067 10.13 5.64 7.16203C5.19879 7.91184 4.96866 8.76705 4.974 9.63703C4.974 11.347 5.844 12.85 7.162 13.733C6.38086 13.7082 5.61697 13.497 4.934 13.117V13.177C4.93356 14.3134 5.32627 15.415 6.04551 16.2948C6.76474 17.1746 7.76621 17.7785 8.88 18.004C8.1583 18.1974 7.40241 18.2265 6.668 18.089C6.98412 19.067 7.59766 19.922 8.42301 20.5345C9.24837 21.1471 10.2444 21.4867 11.272 21.506C9.53153 22.872 7.38248 23.6133 5.17 23.611C4.78 23.611 4.391 23.588 4 23.544C6.25571 24.9884 8.87851 25.755 11.557 25.753C20.61 25.753 25.555 18.257 25.555 11.768C25.555 11.558 25.555 11.348 25.54 11.138C26.506 10.4429 27.3392 9.57985 28 8.59003L27.953 8.57003Z" fill="black"/>
</svg>
