<svg width="32" height="32" viewBox="0 0 32 32" fill="none" xmlns="http://www.w3.org/2000/svg">
<path d="M12.652 0.004L13.624 0H18.376L19.3493 0.004L20.568 0.0173333L21.1453 0.0266667L21.7027 0.0413333L22.24 0.06L22.7573 0.0813333L23.256 0.109333L23.736 0.142667L24.196 0.182667L24.64 0.226667C26.96 0.488 28.5507 1.048 29.7507 2.248C30.9507 3.448 31.5107 5.03733 31.772 7.35867L31.8173 7.80267L31.856 8.264L31.8893 8.744L31.916 9.24133L31.9493 10.0253L31.9653 10.572L31.9827 11.4307L31.9947 12.6507L32 13.9573L31.9987 18.3747L31.9947 19.348L31.9813 20.5667L31.972 21.144L31.9573 21.7013L31.9387 22.2387L31.9173 22.756L31.8893 23.2547L31.856 23.7347L31.816 24.1947L31.772 24.6387C31.5107 26.9587 30.9507 28.5493 29.7507 29.7493C28.5507 30.9493 26.9613 31.5093 24.64 31.7707L24.196 31.816L23.7347 31.8547L23.2547 31.888L22.7573 31.9147L21.9733 31.948L21.4267 31.964L20.568 31.9813L19.348 31.9933L18.0413 31.9987L13.624 31.9973L12.6507 31.9933L11.432 31.98L10.8547 31.9707L10.2973 31.956L9.76 31.9373L9.24267 31.916L8.744 31.888L8.264 31.8547L7.804 31.8147L7.36 31.7707C5.04 31.5093 3.44933 30.9493 2.24933 29.7493C1.04933 28.5493 0.489333 26.96 0.228 24.6387L0.182667 24.1947L0.144 23.7333L0.110667 23.2533L0.084 22.756L0.0506667 21.972L0.0346667 21.4253L0.0173333 20.5667L0.00533333 19.3467L0 18.04L0.00133333 13.6227L0.00533333 12.6493L0.0186667 11.4307L0.028 10.8533L0.0426667 10.296L0.0613333 9.75867L0.0826667 9.24133L0.110667 8.74267L0.144 8.26267L0.184 7.80267L0.228 7.35867C0.489333 5.03867 1.04933 3.448 2.24933 2.248C3.44933 1.048 5.03867 0.488 7.36 0.226667L7.804 0.181333L8.26533 0.142667L8.74533 0.109333L9.24267 0.0826667L10.0267 0.0493333L10.5733 0.0333333L11.432 0.016L12.652 0.004Z" fill="white"/>
<path d="M13.489 4.00404L14.218 4.00104H17.782L18.512 4.00404L19.426 4.01404L19.859 4.02104L20.277 4.03204L20.68 4.04604L21.068 4.06204L21.442 4.08304L21.802 4.10804L22.147 4.13804L22.48 4.17104C24.22 4.36704 25.413 4.78704 26.313 5.68704C27.213 6.58704 27.633 7.77904 27.829 9.52004L27.863 9.85304L27.892 10.199L27.917 10.559L27.937 10.932L27.962 11.52L27.974 11.93L27.987 12.574L27.996 13.489L28 14.469L27.999 17.782L27.996 18.512L27.986 19.426L27.979 19.859L27.968 20.277L27.954 20.68L27.938 21.068L27.917 21.442L27.892 21.802L27.862 22.147L27.829 22.48C27.633 24.22 27.213 25.413 26.313 26.313C25.413 27.213 24.221 27.633 22.48 27.829L22.147 27.863L21.801 27.892L21.441 27.917L21.068 27.937L20.48 27.962L20.07 27.974L19.426 27.987L18.511 27.996L17.531 28L14.218 27.999L13.488 27.996L12.574 27.986L12.141 27.979L11.723 27.968L11.32 27.954L10.932 27.938L10.558 27.917L10.198 27.892L9.853 27.862L9.52 27.829C7.78 27.633 6.587 27.213 5.687 26.313C4.787 25.413 4.367 24.221 4.171 22.48L4.137 22.147L4.108 21.801L4.083 21.441L4.063 21.068L4.038 20.48L4.026 20.07L4.013 19.426L4.004 18.511L4 17.531L4.001 14.218L4.004 13.488L4.014 12.574L4.021 12.141L4.032 11.723L4.046 11.32L4.062 10.932L4.083 10.558L4.108 10.198L4.138 9.85304L4.171 9.52004C4.367 7.78004 4.787 6.58704 5.687 5.68704C6.587 4.78704 7.779 4.36704 9.52 4.17104L9.853 4.13704L10.199 4.10804L10.559 4.08304L10.932 4.06304L11.52 4.03804L11.93 4.02604L12.574 4.01304L13.489 4.00404V4.00404ZM10.79 11.3H8.05C8.18 17.54 11.3 21.29 16.77 21.29H17.08V17.72C19.09 17.92 20.61 19.39 21.22 21.29H24.06C23.28 18.45 21.23 16.88 19.95 16.28C21.23 15.54 23.03 13.74 23.46 11.3H20.88C20.32 13.28 18.66 15.08 17.08 15.25V11.3H14.5V18.22C12.9 17.82 10.88 15.88 10.79 11.3V11.3Z" fill="black"/>
</svg>
